<?xml version="1.0" encoding="utf-8"?>
<svg xmlns="http://www.w3.org/2000/svg" xmlns:xlink="http://www.w3.org/1999/xlink" style="margin: auto; background: rgb(241, 242, 243); display: block; shape-rendering: auto;" width="210px" height="210px" viewBox="0 0 100 100" preserveAspectRatio="xMidYMid">
<g transform="translate(50 50)">
<g transform="rotate(11.2538)">
<animateTransform attributeName="transform" type="rotate" values="0;45" keyTimes="0;1" dur="0.4587155963302753s" repeatCount="indefinite"></animateTransform><path d="M29.17190429162964 -7 L37.171904291629644 -7 L37.171904291629644 7 L29.17190429162964 7 A30 30 0 0 1 25.5773988130421 15.677903876430435 L25.5773988130421 15.677903876430435 L31.23425306253448 21.334758125922814 L21.334758125922818 31.23425306253448 L15.677903876430438 25.5773988130421 A30 30 0 0 1 7.000000000000002 29.17190429162964 L7.000000000000002 29.17190429162964 L7.000000000000003 37.171904291629644 L-6.999999999999997 37.171904291629644 L-6.999999999999998 29.17190429162964 A30 30 0 0 1 -15.677903876430427 25.577398813042105 L-15.677903876430427 25.577398813042105 L-21.334758125922807 31.234253062534485 L-31.234253062534485 21.334758125922814 L-25.577398813042105 15.677903876430435 A30 30 0 0 1 -29.17190429162964 7.00000000000001 L-29.17190429162964 7.00000000000001 L-37.171904291629644 7.000000000000011 L-37.171904291629644 -7.000000000000002 L-29.17190429162964 -7.000000000000003 A30 30 0 0 1 -25.57739881304211 -15.677903876430427 L-25.57739881304211 -15.677903876430427 L-31.23425306253449 -21.334758125922807 L-21.334758125922814 -31.23425306253448 L-15.677903876430435 -25.5773988130421 A30 30 0 0 1 -7.0000000000000115 -29.171904291629637 L-7.0000000000000115 -29.171904291629637 L-7.000000000000013 -37.17190429162964 L6.999999999999999 -37.171904291629644 L7.000000000000001 -29.17190429162964 A30 30 0 0 1 15.677903876430424 -25.57739881304211 L15.677903876430424 -25.57739881304211 L21.334758125922804 -31.23425306253449 L31.23425306253448 -21.334758125922814 L25.5773988130421 -15.677903876430435 A30 30 0 0 1 29.171904291629637 -7.000000000000013 M0 -23A23 23 0 1 0 0 23 A23 23 0 1 0 0 -23" fill="#1d0e0b"></path></g></g>
<!-- [ldio] generated by https://loading.io/ --></svg>